# xmcd CD database file
#
# Track frame offsets:
#	150
#	14850
#	25385
#	40212
#	58770
#	82165
#	96342
#	116829
#
# Disc length: 1833 seconds
#
# Revision: 0
# Processed by: cddbd v1.5.1PL0 Copyright (c) Steve Scherf et al.
# Submitted via: CDex 1.51
#
DISCID=72072708
DTITLE=Vari - I COLORI DELLA VITA - Solidarietà
DYEAR=2005
DGENRE=New Age
TTITLE0=Lucio Dalla - Piazza grande
TTITLE1=Fabrizio De Andrè - Il pescatore
TTITLE2=New Trolls - Signore io sono Irish
TTITLE3=Delirium - Jesahel
TTITLE4=Claudio Baglioni - Poster 
TTITLE5=Gianni Morandi - C'era un ragazzo che come me amava...
TTITLE6=Ivano Fossati - Dedicato
TTITLE7=Ron - Il mondo avrà una grande anima
EXTD=YEAR: 2005
EXTT0=
EXTT1=
EXTT2=
EXTT3=
EXTT4=
EXTT5=
EXTT6=
EXTT7=
PLAYORDER=
